<?xml version="1.0" encoding="UTF-8" standalone="no"?>
<!-- Created with Inkscape (http://www.inkscape.org/) -->

<svg
   xmlns:dc="http://purl.org/dc/elements/1.1/"
   xmlns:cc="http://creativecommons.org/ns#"
   xmlns:rdf="http://www.w3.org/1999/02/22-rdf-syntax-ns#"
   xmlns:svg="http://www.w3.org/2000/svg"
   xmlns="http://www.w3.org/2000/svg"
   xmlns:sodipodi="http://sodipodi.sourceforge.net/DTD/sodipodi-0.dtd"
   xmlns:inkscape="http://www.inkscape.org/namespaces/inkscape"
   width="23.603411"
   height="23.55541"
   version="1.1"
   viewBox="0 0 23.60341 23.555411"
   xml:space="preserve"
   id="svg1323"
   sodipodi:docname="pauseButton.svg"
   inkscape:version="0.92.3 (2405546, 2018-03-11)"><sodipodi:namedview
     pagecolor="#ffffff"
     bordercolor="#666666"
     borderopacity="1"
     objecttolerance="10"
     gridtolerance="10"
     guidetolerance="10"
     inkscape:pageopacity="0"
     inkscape:pageshadow="2"
     inkscape:window-width="1920"
     inkscape:window-height="1001"
     id="namedview1325"
     showgrid="false"
     inkscape:zoom="1.771069"
     inkscape:cx="59.84308"
     inkscape:cy="55.896971"
     inkscape:window-x="-9"
     inkscape:window-y="1341"
     inkscape:window-maximized="1"
     inkscape:current-layer="svg1323" /><metadata
     id="metadata2"><rdf:RDF><cc:Work
         rdf:about=""><dc:format>image/svg+xml</dc:format><dc:type
           rdf:resource="http://purl.org/dc/dcmitype/StillImage" /><dc:title></dc:title></cc:Work></rdf:RDF></metadata><defs
     id="defs91"><clipPath
   id="clipPath62"><path
     d="M 0,1080 H 1920 V 0 H 0 Z"
     id="path4"
     inkscape:connector-curvature="0" /></clipPath><clipPath
   id="clipPath1294"><path
     d="M 0,1080 H 1920 V 0 H 0 Z"
     id="path7"
     inkscape:connector-curvature="0" /></clipPath><clipPath
   id="clipPath1316"><path
     d="M 0,1080 H 1920 V 0 H 0 Z"
     id="path10"
     inkscape:connector-curvature="0" /></clipPath><clipPath
   id="clipPath1324"><path
     d="m 160.66,775.18 h 754.27 v -1 H 160.66 Z"
     id="path13"
     inkscape:connector-curvature="0" /></clipPath><clipPath
   id="clipPath1340"><path
     d="m 192.5,797.49 h 42.25 v -1 H 192.5 Z"
     id="path16"
     inkscape:connector-curvature="0" /></clipPath><clipPath
   id="clipPath1360"><path
     d="M 0,1080 H 1920 V 0 H 0 Z"
     id="path19"
     inkscape:connector-curvature="0" /></clipPath><clipPath
   id="clipPath1368"><path
     d="m 360.17,797.49 h 42.25 v -1 h -42.25 z"
     id="path22"
     inkscape:connector-curvature="0" /></clipPath><clipPath
   id="clipPath1384"><path
     d="m 464.5,753.79 h 1 v -42.25 h -1 z"
     id="path25"
     inkscape:connector-curvature="0" /></clipPath><clipPath
   id="clipPath1400"><path
     d="m 672.5,753.79 h 1 v -42.25 h -1 z"
     id="path28"
     inkscape:connector-curvature="0" /></clipPath><clipPath
   id="clipPath1416"><path
     d="m 464.5,679.29 h 1 v -42.25 h -1 z"
     id="path31"
     inkscape:connector-curvature="0" /></clipPath><clipPath
   id="clipPath1432"><path
     d="m 672.5,679.29 h 1 v -42.25 h -1 z"
     id="path34"
     inkscape:connector-curvature="0" /></clipPath><clipPath
   id="clipPath1448"><path
     d="m 464.5,604.79 h 1 v -42.25 h -1 z"
     id="path37"
     inkscape:connector-curvature="0" /></clipPath><clipPath
   id="clipPath1464"><path
     d="m 672.5,604.79 h 1 v -42.25 h -1 z"
     id="path40"
     inkscape:connector-curvature="0" /></clipPath><clipPath
   id="clipPath1484"><path
     d="M 0,1080 H 1920 V 0 H 0 Z"
     id="path43"
     inkscape:connector-curvature="0" /></clipPath><clipPath
   id="clipPath1492"><path
     d="m 527.84,797.49 h 42.25 v -1 h -42.25 z"
     id="path46"
     inkscape:connector-curvature="0" /></clipPath><clipPath
   id="clipPath1508"><path
     d="m 181.93,701.18 h 711.74 v -1 H 181.93 Z"
     id="path49"
     inkscape:connector-curvature="0" /></clipPath><clipPath
   id="clipPath1524"><path
     d="m 181.93,623.19 h 711.74 v -1 H 181.93 Z"
     id="path52"
     inkscape:connector-curvature="0" /></clipPath><clipPath
   id="clipPath1540"><path
     d="m 181.93,545.19 h 711.74 v -1 H 181.93 Z"
     id="path55"
     inkscape:connector-curvature="0" /></clipPath><clipPath
   id="clipPath1608"><path
     d="M 0,1080 H 1920 V 0 H 0 Z"
     id="path58"
     inkscape:connector-curvature="0" /></clipPath><clipPath
   id="clipPath1646"><path
     d="M 0,1080 H 1920 V 0 H 0 Z"
     id="path61"
     inkscape:connector-curvature="0" /></clipPath><clipPath
   id="clipPath1668"><path
     d="M 0,1080 H 1920 V 0 H 0 Z"
     id="path64"
     inkscape:connector-curvature="0" /></clipPath><clipPath
   id="clipPath1684"><path
     d="M 0,1080 H 1920 V 0 H 0 Z"
     id="path67"
     inkscape:connector-curvature="0" /></clipPath><clipPath
   id="clipPath1708"><path
     d="M 0,1080 H 1920 V 0 H 0 Z"
     id="path70"
     inkscape:connector-curvature="0" /></clipPath><clipPath
   id="clipPath1716"><path
     d="M 478.44,751.62 H 638.77 V 720.079 H 478.44 Z"
     id="path73"
     inkscape:connector-curvature="0" /></clipPath><clipPath
   id="clipPath1732"><path
     d="M 478.44,677.12 H 638.77 V 645.579 H 478.44 Z"
     id="path76"
     inkscape:connector-curvature="0" /></clipPath><clipPath
   id="clipPath1748"><path
     d="M 478.44,602.62 H 638.77 V 571.079 H 478.44 Z"
     id="path79"
     inkscape:connector-curvature="0" /></clipPath><clipPath
   id="clipPath1764"><path
     d="M 691.27,751.62 H 851.6 V 720.079 H 691.27 Z"
     id="path82"
     inkscape:connector-curvature="0" /></clipPath><clipPath
   id="clipPath1780"><path
     d="M 691.27,677.12 H 851.6 V 645.579 H 691.27 Z"
     id="path85"
     inkscape:connector-curvature="0" /></clipPath><clipPath
   id="clipPath1796"><path
     d="M 691.27,602.62 H 851.6 V 571.079 H 691.27 Z"
     id="path88"
     inkscape:connector-curvature="0" /></clipPath>










</defs><path
     style="fill:#bfbfbf;stroke-width:1.33329999"
     d="M 23.60341,0 H 0 v 23.555411 h 23.60341 z"
     id="path1027"
     inkscape:connector-curvature="0" /></svg>